<?xml version="1.0" encoding="UTF-8" standalone="no"?><!DOCTYPE svg PUBLIC "-//W3C//DTD SVG 1.1//EN" "http://www.w3.org/Graphics/SVG/1.1/DTD/svg11.dtd"><svg width="100%" height="100%" viewBox="0 0 3750 1000" version="1.1" xmlns="http://www.w3.org/2000/svg" xmlns:xlink="http://www.w3.org/1999/xlink" xml:space="preserve" xmlns:serif="http://www.serif.com/" style="fill-rule:evenodd;clip-rule:evenodd;stroke-linejoin:round;stroke-miterlimit:2;"><g><path d="M451.07,222.611l411.785,576.498l-288.249,-0l-123.535,-185.303l-123.535,185.303l-288.249,0l411.785,-576.498Z" style="fill:#b8792c;fill-rule:nonzero;"/><path d="M451.07,222.611l123.535,576.498l-123.535,-185.303l-123.535,185.303l123.535,-576.498Z" style="fill:#282e3a;fill-opacity:0.35;fill-rule:nonzero;"/></g><g transform="matrix(803.603896,0,0,803.603896,905.281217,799.109103)"><path d="M0.246,-0l0,-0.241l-0.238,-0.459l0.147,0l0.148,0.3l0.018,0l0.148,-0.3l0.147,0l-0.238,0.459l0,0.241l-0.132,-0Z" style="fill:#2a2e38;fill-rule:nonzero;"/></g><g transform="matrix(803.603896,0,0,803.603896,1348.870568,799.109103)"><path d="M0.018,-0l0.184,-0.7l0.23,0l0.184,0.7l-0.136,-0l-0.038,-0.154l-0.25,0l-0.038,0.154l-0.136,-0Zm0.205,-0.276l0.188,0l-0.085,-0.341l-0.018,0l-0.085,0.341Z" style="fill:#2a2e38;fill-rule:nonzero;"/></g><g transform="matrix(803.603896,0,0,803.603896,1858.355437,799.109103)"><path d="M0.018,-0l0.184,-0.7l0.23,0l0.184,0.7l-0.136,-0l-0.038,-0.154l-0.25,0l-0.038,0.154l-0.136,-0Zm0.205,-0.276l0.188,0l-0.085,-0.341l-0.018,0l-0.085,0.341Z" style="fill:#2a2e38;fill-rule:nonzero;"/></g><g transform="matrix(803.603896,0,0,803.603896,2367.840307,799.109103)"><path d="M0.066,-0l0,-0.7l0.245,0l0.121,0.61l0.018,-0l0.121,-0.61l0.245,0l0,0.7l-0.128,-0l0,-0.603l-0.018,0l-0.12,0.603l-0.218,-0l-0.12,-0.603l-0.018,0l0,0.603l-0.128,-0Z" style="fill:#2a2e38;fill-rule:nonzero;"/></g><g transform="matrix(803.603896,0,0,803.603896,3076.618944,799.109103)"><path d="M0.309,0.014c-0.054,0 -0.102,-0.01 -0.143,-0.029c-0.041,-0.019 -0.074,-0.047 -0.097,-0.083c-0.023,-0.036 -0.035,-0.079 -0.035,-0.13l0,-0.028l0.13,0l0,0.028c0,0.042 0.013,0.074 0.039,0.095c0.026,0.021 0.061,0.031 0.106,0.032c0.045,-0 0.079,-0.009 0.102,-0.027c0.022,-0.018 0.033,-0.041 0.033,-0.069c0,-0.019 -0.005,-0.035 -0.017,-0.047c-0.011,-0.012 -0.027,-0.022 -0.048,-0.03c-0.021,-0.008 -0.046,-0.015 -0.077,-0.021l-0.023,-0.005c-0.048,-0.011 -0.089,-0.024 -0.124,-0.041c-0.034,-0.016 -0.061,-0.038 -0.079,-0.065c-0.018,-0.027 -0.027,-0.061 -0.027,-0.104c0,-0.043 0.01,-0.079 0.03,-0.11c0.02,-0.03 0.049,-0.054 0.086,-0.07c0.037,-0.016 0.08,-0.024 0.13,-0.024c0.05,0 0.095,0.009 0.134,0.025c0.039,0.017 0.07,0.042 0.092,0.076c0.022,0.034 0.034,0.076 0.034,0.127l0,0.03l-0.13,0l0,-0.03c0,-0.027 -0.005,-0.048 -0.015,-0.065c-0.01,-0.016 -0.025,-0.028 -0.045,-0.036c-0.019,-0.008 -0.042,-0.011 -0.069,-0.011c-0.04,0 -0.069,0.007 -0.088,0.022c-0.019,0.015 -0.028,0.035 -0.028,0.061c0,0.017 0.005,0.032 0.014,0.044c0.009,0.012 0.022,0.022 0.041,0.03c0.018,0.008 0.041,0.015 0.069,0.021l0.023,0.005c0.05,0.011 0.094,0.024 0.131,0.041c0.037,0.017 0.066,0.039 0.087,0.066c0.021,0.027 0.031,0.062 0.031,0.105c0,0.043 -0.011,0.08 -0.033,0.113c-0.022,0.032 -0.052,0.058 -0.092,0.076c-0.04,0.018 -0.087,0.027 -0.141,0.027Z" style="fill:#2a2e38;fill-rule:nonzero;"/></g></svg>